Coordinates
version=1
nRows=11
nColumns=36
inDegrees=yes

Units are S.I. units (second, meters, Newtons, ...)
If the header above contains a line with 'inDegrees', this indicates whether rotational values are in degrees (yes) or radians (no).

endheader
time	pelvis_tilt	pelvis_list	pelvis_rotation	pelvis_tx	pelvis_ty	pelvis_tz	hip_flexion_r	hip_adduction_r	hip_rotation_r	knee_angle_r	knee_angle_r_beta	ankle_angle_r	subtalar_angle_r	mtp_angle_r	hip_flexion_l	hip_adduction_l	hip_rotation_l	knee_angle_l	knee_angle_l_beta	ankle_angle_l	subtalar_angle_l	mtp_angle_l	lumbar_extension	lumbar_bending	lumbar_rotation	arm_flex_r	arm_add_r	arm_rot_r	elbow_flex_r	pro_sup_r	arm_flex_l	arm_add_l	arm_rot_l	elbow_flex_l	pro_sup_l
      0.79000000	     -4.36855238	      0.20234581	     -5.68870051	      0.73288891	      1.03346685	     -0.32774601	     -1.45072355	     -3.54899579	     -8.29078873	     40.09275831	      0.69975064	    -12.86948754	    -10.39080359	     -6.73641481	     14.18913720	     -2.79271495	     -8.80730110	      2.14310290	      0.03740420	     -6.35075643	      2.46103272	     -6.73641481	     -6.77748142	    -25.85649304	     -0.37003101	     -5.18776507	     -7.20254895	      6.77732738	     45.36220326	    109.61694875	     -5.64945682	    -19.28215541	    -22.10929880	     37.40415086	    109.84402890
      0.80000000	     -4.49380007	      0.09995150	     -5.92911835	      0.74257717	      1.03499203	     -0.32927686	      0.42080863	     -3.88136885	     -8.27576563	     43.23567269	      0.75460484	    -14.91154423	    -12.10711855	     -6.75933834	     13.63573322	     -2.77479401	     -9.00721484	      2.08699007	      0.03642485	     -5.81789801	      2.40916262	     -6.75933834	     -6.74088809	    -25.98811891	     -0.67999466	     -5.28851295	     -7.48746421	      7.60157618	     45.61339567	    109.66012239	     -4.81502001	    -19.41032210	    -21.93113049	     38.05393059	    109.99199382
      0.81000000	     -4.46740434	      0.05461358	     -6.15799563	      0.75220789	      1.03650125	     -0.33089034	      2.11492853	     -4.32275900	     -8.37548955	     46.26969109	      0.80755845	    -16.11211576	    -13.35313158	     -6.76939445	     12.90537063	     -2.66590949	     -9.10616125	      2.00414998	      0.03497902	     -5.18620616	      2.39947989	     -6.76939445	     -6.89842729	    -26.14270841	     -1.00336812	     -5.42419325	     -7.76936500	      8.19948059	     46.00290876	    109.65395749	     -3.91020714	    -19.52530537	    -21.66584914	     38.71256898	    110.02054925
      0.82000000	     -4.55214305	     -0.02352507	     -6.37482456	      0.76168374	      1.03772647	     -0.33233922	      3.90585685	     -4.63151601	     -8.43848937	     49.11334144	      0.85718951	    -17.13568253	    -15.33672831	     -6.78004071	     12.36543331	     -2.62379019	     -9.29612303	      2.00951821	      0.03507271	     -4.64526442	      2.34173708	     -6.78004071	     -6.88572971	    -26.24280196	     -1.28422888	     -5.55568690	     -8.06089670	      8.87058823	     46.38168091	    109.67662965	     -3.03959873	    -19.69867697	    -21.24870180	     39.39119811	    110.08571127
      0.83000000	     -4.53260676	     -0.16406163	     -6.57030329	      0.77105379	      1.03904474	     -0.33369471	      5.50885401	     -4.82767820	     -8.51861044	     51.68322838	      0.90204250	    -17.66055320	    -17.36848489	     -6.78939773	     11.72359189	     -2.64235822	     -9.40373051	      2.04374244	      0.03567003	     -4.13900384	      2.32336271	     -6.78939773	     -7.04632712	    -26.26689615	     -1.63112532	     -5.60613356	     -8.29719705	      9.40545928	     46.64262005	    109.67382685	     -2.11554284	    -19.89692027	    -20.78139619	     40.00336334	    110.12963481
      0.84000000	     -4.59916575	     -0.39206038	     -6.74457846	      0.78038756	      1.04021874	     -0.33489510	      7.13012521	     -4.83427033	     -8.62465476	     53.92091270	      0.94109746	    -18.75465159	    -20.34773955	     -6.81534269	     11.21093953	     -2.78482229	     -9.64445658	      2.13811602	      0.03731716	     -3.69215641	      2.33364003	     -6.81534269	     -7.07318694	    -26.17392690	     -1.92501905	     -5.65304908	     -8.50734752	      9.94290806	     46.77602798	    109.69972532	     -1.16171125	    -20.18265131	    -19.87995114	     40.43706679	    110.22268319
      0.85000000	     -4.39773718	     -0.54008569	     -6.88257782	      0.78976219	      1.04164449	     -0.33622499	      8.41622984	     -4.99376683	     -8.78332492	     55.98371159	      0.97710009	    -17.99347259	    -21.92352623	     -6.82227084	     10.34634111	     -2.76692479	     -9.66342424	      2.11901900	      0.03698386	     -3.16068659	      2.34695660	     -6.82227084	     -7.46616667	    -26.17466368	     -2.34183180	     -5.65966824	     -8.66143452	     10.19148190	     46.93754198	    109.63947097	     -0.18532873	    -20.36785931	    -19.51445431	     41.01974236	    110.19500670
      0.86000000	     -4.28260182	     -0.68996091	     -7.00427709	      0.79913537	      1.04289309	     -0.33748704	      9.74943449	     -5.09585965	     -8.95122516	     57.77612613	      1.00838363	    -17.20259362	    -23.56470633	     -6.82924913	      9.57583701	     -2.75814448	     -9.76333071	      2.07864601	      0.03627922	     -2.67622965	      2.32976103	     -6.82924913	     -7.71245751	    -26.15521346	     -2.73705114	     -5.67375486	     -8.77277593	     10.43774872	     47.03851975	    109.58505311	      0.76625824	    -20.59197054	    -18.98565846	     41.60777528	    110.19046496
      0.87000000	     -4.24793617	     -0.86442094	     -7.11630612	      0.80842160	      1.04397934	     -0.33863679	     11.14222785	     -5.08814939	     -9.07165077	     59.28257172	      1.03467607	    -16.84139674	    -25.35271599	     -6.85846824	      8.92220275	     -2.79717053	     -9.91809714	      2.08623246	      0.03641163	     -2.22594595	      2.34495053	     -6.85846824	     -7.82193369	    -26.08327994	     -2.94603185	     -5.79218514	     -8.83333018	     10.46750015	     47.08843274	    109.56809385	      1.89350209	    -20.98999320	    -17.59276066	     41.83964024	    110.17533051
      0.88000000	     -4.10184776	     -1.06222314	     -7.16055348	      0.81769456	      1.04515334	     -0.33979326	     12.33278602	     -5.02396625	     -9.19110275	     60.48932004	      1.05573780	    -15.87020831	    -26.28668643	     -6.86681862	      8.11821801	     -2.82902025	     -9.93117807	      2.02431697	      0.03533100	     -1.76149518	      2.33162587	     -6.86681862	     -8.13232911	    -25.99927017	     -3.41378374	     -5.76083942	     -8.81064882	     10.48144982	     47.02412233	    109.47697978	      2.85625302	    -21.20612124	    -17.15408103	     42.40775264	    110.12444655
      0.89000000	     -4.03775156	     -1.27036737	     -7.17224516	      0.82686911	      1.04614318	     -0.34085460	     13.58394232	     -4.88825539	     -9.28936284	     61.45332196	      1.07256280	    -14.88365134	    -26.62389027	     -6.89018654	      7.43412295	     -2.89020505	     -9.94414846	      2.00224322	      0.03494574	     -1.37167104	      2.31178459	     -6.89018654	     -8.32674211	    -25.88125134	     -3.74051815	     -5.84148949	     -8.72729969	     10.24710888	     46.93143218	    109.41278220	      3.95187014	    -21.56295379	    -16.04703000	     42.78271155	    110.06241778
